<svg id="Filled" height="512" viewBox="0 0 512 512" width="512" xmlns="http://www.w3.org/2000/svg"><path d="m304 64-48-8v-32l48 8z" fill="#ffb632"/><path d="m344 488h-176v-336l88-64 88 64z" fill="#ffb632"/><circle cx="256" cy="200" fill="#e9eef2" r="40"/><path d="m344 152h128v336h-128z" fill="#f7b030"/><path d="m264 208h-8a8 8 0 0 1 -8-8v-16a8 8 0 0 1 16 0v8a8 8 0 0 1 0 16z" fill="#eb423f"/><path d="m200 272h112v32h-112z" fill="#d13330"/><path d="m256 344a48 48 0 0 1 48 48v96a0 0 0 0 1 0 0h-96a0 0 0 0 1 0 0v-96a48 48 0 0 1 48-48z" fill="#eb423f"/><path d="m40 152h128v336h-128z" fill="#f7b030"/><path d="m80 192h48v64h-48z" fill="#e9eef2"/><path d="m80 288h48v64h-48z" fill="#dadcde"/><path d="m80 384h48v64h-48z" fill="#e9eef2"/><path d="m384 192h48v64h-48z" fill="#e9eef2"/><path d="m384 288h48v64h-48z" fill="#dadcde"/><path d="m384 384h48v64h-48z" fill="#e9eef2"/><path d="m256 248a48 48 0 1 0 -48-48 48.055 48.055 0 0 0 48 48zm0-80a32 32 0 1 1 -32 32 32.036 32.036 0 0 1 32-32z"/><path d="m256 208h8a8 8 0 0 0 0-16v-8a8 8 0 0 0 -16 0v16a8 8 0 0 0 8 8z"/><path d="m320 304v-32a8 8 0 0 0 -8-8h-112a8 8 0 0 0 -8 8v32a8 8 0 0 0 8 8h112a8 8 0 0 0 8-8zm-16-8h-96v-16h96z"/><path d="m72 264h64a8 8 0 0 0 0-16v-56a8 8 0 0 0 -8-8h-48a8 8 0 0 0 -8 8v56a8 8 0 0 0 0 16zm16-64h32v48h-32z"/><path d="m136 344v-56a8 8 0 0 0 -8-8h-48a8 8 0 0 0 -8 8v56a8 8 0 0 0 0 16h64a8 8 0 0 0 0-16zm-48-48h32v48h-32z"/><path d="m136 440v-56a8 8 0 0 0 -8-8h-48a8 8 0 0 0 -8 8v56a8 8 0 0 0 0 16h64a8 8 0 0 0 0-16zm-48-48h32v48h-32z"/><path d="m376 264h64a8 8 0 0 0 0-16v-56a8 8 0 0 0 -8-8h-48a8 8 0 0 0 -8 8v56a8 8 0 0 0 0 16zm16-64h32v48h-32z"/><path d="m376 360h64a8 8 0 0 0 0-16v-56a8 8 0 0 0 -8-8h-48a8 8 0 0 0 -8 8v56a8 8 0 0 0 0 16zm16-64h32v48h-32z"/><path d="m376 456h64a8 8 0 0 0 0-16v-56a8 8 0 0 0 -8-8h-48a8 8 0 0 0 -8 8v56a8 8 0 0 0 0 16zm16-64h32v48h-32z"/><path d="m488 160a8 8 0 0 0 0-16h-141.4l-82.6-60.074v-18.482l38.685 6.447a8 8 0 0 0 9.315-7.891v-32a8 8 0 0 0 -6.685-7.891l-48-8v.008a7.954 7.954 0 0 0 -9.315 7.883v59.926l-82.6 60.074h-141.4a8 8 0 0 0 0 16h8v320h-8a8 8 0 0 0 0 16h464a8 8 0 0 0 0-16h-8v-320zm-240 320h-32v-88a40.067 40.067 0 0 1 32-39.195zm16-127.195a40.067 40.067 0 0 1 32 39.195v88h-32zm-8-16.805a56.064 56.064 0 0 0 -56 56v88h-24v-323.926l80-58.182 80 58.182v323.926h-24v-88a56.064 56.064 0 0 0 -56-56zm40-281.444-32-5.333v-15.779l32 5.333zm-248 105.444h112v320h-112zm416 320h-112v-320h112z"/></svg>